<mxfile host="app.diagrams.net" modified="2023-12-09T10:20:46.620Z" agent="Mozilla/5.0 (Windows NT 10.0; Win64; x64) AppleWebKit/537.36 (KHTML, like Gecko) Chrome/120.0.0.0 Safari/537.36" etag="eBan_78KxksSExUOAfR_" version="22.1.7" type="device">
  <diagram name="Page-1" id="Bt_czaPvXHZHWaKobuq_">
    <mxGraphModel dx="3187" dy="1738" grid="1" gridSize="10" guides="1" tooltips="1" connect="1" arrows="1" fold="1" page="1" pageScale="1" pageWidth="850" pageHeight="1100" math="0" shadow="0">
      <root>
        <mxCell id="0" />
        <mxCell id="1" parent="0" />
        <mxCell id="peirUXlElTm4W4tFbfPy-1" value="&lt;span style=&quot;font-size: 31px;&quot;&gt;의사 매칭 시스템&lt;/span&gt;" style="rounded=0;whiteSpace=wrap;html=1;" parent="1" vertex="1">
          <mxGeometry x="60" y="200" width="280" height="50" as="geometry" />
        </mxCell>
        <mxCell id="peirUXlElTm4W4tFbfPy-14" value="" style="line;strokeWidth=2;direction=south;html=1;" parent="1" vertex="1">
          <mxGeometry x="90" y="250" width="10" height="590" as="geometry" />
        </mxCell>
        <mxCell id="peirUXlElTm4W4tFbfPy-22" style="edgeStyle=orthogonalEdgeStyle;rounded=0;orthogonalLoop=1;jettySize=auto;html=1;endArrow=none;endFill=0;" parent="1" edge="1">
          <mxGeometry relative="1" as="geometry">
            <mxPoint x="200" y="780" as="targetPoint" />
            <mxPoint x="199.67000000000002" y="300" as="sourcePoint" />
          </mxGeometry>
        </mxCell>
        <mxCell id="peirUXlElTm4W4tFbfPy-17" value="&lt;font style=&quot;font-size: 20px;&quot;&gt;환자&lt;/font&gt;" style="rounded=0;whiteSpace=wrap;html=1;" parent="1" vertex="1">
          <mxGeometry x="190" y="270" width="80" height="30" as="geometry" />
        </mxCell>
        <mxCell id="peirUXlElTm4W4tFbfPy-23" value="" style="endArrow=none;html=1;rounded=0;" parent="1" edge="1">
          <mxGeometry width="50" height="50" relative="1" as="geometry">
            <mxPoint x="200" y="320" as="sourcePoint" />
            <mxPoint x="240" y="320" as="targetPoint" />
          </mxGeometry>
        </mxCell>
        <mxCell id="peirUXlElTm4W4tFbfPy-24" value="&lt;span style=&quot;font-size: 20px;&quot;&gt;로그인 및 회원가입&lt;/span&gt;" style="rounded=0;whiteSpace=wrap;html=1;" parent="1" vertex="1">
          <mxGeometry x="240" y="310" width="180" height="30" as="geometry" />
        </mxCell>
        <mxCell id="peirUXlElTm4W4tFbfPy-40" value="" style="endArrow=none;html=1;rounded=0;align=left;spacingLeft=0;" parent="1" edge="1">
          <mxGeometry width="50" height="50" relative="1" as="geometry">
            <mxPoint x="95" y="280" as="sourcePoint" />
            <mxPoint x="190" y="280.29999999999995" as="targetPoint" />
            <Array as="points">
              <mxPoint x="150" y="280.29999999999995" />
            </Array>
          </mxGeometry>
        </mxCell>
        <mxCell id="8KQ6tQdaeJpBKfgj7b4e-3" style="edgeStyle=orthogonalEdgeStyle;rounded=0;orthogonalLoop=1;jettySize=auto;html=1;endArrow=none;endFill=0;" edge="1" parent="1" source="peirUXlElTm4W4tFbfPy-50">
          <mxGeometry relative="1" as="geometry">
            <mxPoint x="200" y="395" as="targetPoint" />
          </mxGeometry>
        </mxCell>
        <mxCell id="peirUXlElTm4W4tFbfPy-50" value="&lt;span style=&quot;font-size: 20px;&quot;&gt;환자 기본 정보 작성&lt;/span&gt;" style="rounded=0;whiteSpace=wrap;html=1;" parent="1" vertex="1">
          <mxGeometry x="240" y="380" width="190" height="30" as="geometry" />
        </mxCell>
        <mxCell id="peirUXlElTm4W4tFbfPy-58" value="" style="endArrow=none;html=1;rounded=0;align=left;spacingLeft=0;exitX=0.068;exitY=0.528;exitDx=0;exitDy=0;exitPerimeter=0;" parent="1" edge="1">
          <mxGeometry width="50" height="50" relative="1" as="geometry">
            <mxPoint x="95" y="838.82" as="sourcePoint" />
            <mxPoint x="190" y="838.82" as="targetPoint" />
            <Array as="points">
              <mxPoint x="150" y="838.82" />
            </Array>
          </mxGeometry>
        </mxCell>
        <mxCell id="8KQ6tQdaeJpBKfgj7b4e-4" style="edgeStyle=orthogonalEdgeStyle;rounded=0;orthogonalLoop=1;jettySize=auto;html=1;startArrow=none;startFill=0;endArrow=none;endFill=0;" edge="1" parent="1" source="8KQ6tQdaeJpBKfgj7b4e-2">
          <mxGeometry relative="1" as="geometry">
            <mxPoint x="200" y="465" as="targetPoint" />
          </mxGeometry>
        </mxCell>
        <mxCell id="8KQ6tQdaeJpBKfgj7b4e-6" style="edgeStyle=orthogonalEdgeStyle;rounded=0;orthogonalLoop=1;jettySize=auto;html=1;endArrow=none;endFill=0;" edge="1" parent="1" source="8KQ6tQdaeJpBKfgj7b4e-2">
          <mxGeometry relative="1" as="geometry">
            <mxPoint x="480" y="465" as="targetPoint" />
          </mxGeometry>
        </mxCell>
        <mxCell id="8KQ6tQdaeJpBKfgj7b4e-2" value="&lt;span style=&quot;font-size: 20px;&quot;&gt;매칭&lt;/span&gt;" style="rounded=0;whiteSpace=wrap;html=1;" vertex="1" parent="1">
          <mxGeometry x="240" y="450" width="190" height="30" as="geometry" />
        </mxCell>
        <mxCell id="8KQ6tQdaeJpBKfgj7b4e-47" style="edgeStyle=orthogonalEdgeStyle;rounded=0;orthogonalLoop=1;jettySize=auto;html=1;entryX=0;entryY=0.5;entryDx=0;entryDy=0;endArrow=none;endFill=0;" edge="1" parent="1" source="8KQ6tQdaeJpBKfgj7b4e-7" target="8KQ6tQdaeJpBKfgj7b4e-11">
          <mxGeometry relative="1" as="geometry" />
        </mxCell>
        <mxCell id="8KQ6tQdaeJpBKfgj7b4e-48" style="edgeStyle=orthogonalEdgeStyle;rounded=0;orthogonalLoop=1;jettySize=auto;html=1;entryX=0;entryY=0.5;entryDx=0;entryDy=0;endArrow=none;endFill=0;" edge="1" parent="1" source="8KQ6tQdaeJpBKfgj7b4e-7" target="8KQ6tQdaeJpBKfgj7b4e-10">
          <mxGeometry relative="1" as="geometry" />
        </mxCell>
        <mxCell id="8KQ6tQdaeJpBKfgj7b4e-49" style="edgeStyle=orthogonalEdgeStyle;rounded=0;orthogonalLoop=1;jettySize=auto;html=1;entryX=0;entryY=0.5;entryDx=0;entryDy=0;endArrow=none;endFill=0;" edge="1" parent="1" source="8KQ6tQdaeJpBKfgj7b4e-7" target="8KQ6tQdaeJpBKfgj7b4e-9">
          <mxGeometry relative="1" as="geometry" />
        </mxCell>
        <mxCell id="8KQ6tQdaeJpBKfgj7b4e-7" value="&lt;span style=&quot;font-size: 20px;&quot;&gt;의사 상세보기&lt;/span&gt;" style="rounded=0;whiteSpace=wrap;html=1;" vertex="1" parent="1">
          <mxGeometry x="480" y="450" width="190" height="30" as="geometry" />
        </mxCell>
        <mxCell id="8KQ6tQdaeJpBKfgj7b4e-9" value="&lt;span style=&quot;font-size: 20px;&quot;&gt;의사 예약&lt;/span&gt;" style="rounded=0;whiteSpace=wrap;html=1;" vertex="1" parent="1">
          <mxGeometry x="712" y="250" width="190" height="30" as="geometry" />
        </mxCell>
        <mxCell id="8KQ6tQdaeJpBKfgj7b4e-10" value="&lt;span style=&quot;font-size: 20px;&quot;&gt;의사 즐겨찾기&lt;/span&gt;" style="rounded=0;whiteSpace=wrap;html=1;" vertex="1" parent="1">
          <mxGeometry x="711" y="300" width="190" height="30" as="geometry" />
        </mxCell>
        <mxCell id="8KQ6tQdaeJpBKfgj7b4e-11" value="&lt;span style=&quot;font-size: 20px;&quot;&gt;의사 댓글달기&lt;/span&gt;" style="rounded=0;whiteSpace=wrap;html=1;" vertex="1" parent="1">
          <mxGeometry x="712" y="350" width="190" height="30" as="geometry" />
        </mxCell>
        <mxCell id="8KQ6tQdaeJpBKfgj7b4e-40" style="edgeStyle=orthogonalEdgeStyle;rounded=0;orthogonalLoop=1;jettySize=auto;html=1;endArrow=none;endFill=0;" edge="1" parent="1" source="8KQ6tQdaeJpBKfgj7b4e-12">
          <mxGeometry relative="1" as="geometry">
            <mxPoint x="690" y="465" as="targetPoint" />
          </mxGeometry>
        </mxCell>
        <mxCell id="8KQ6tQdaeJpBKfgj7b4e-12" value="&lt;span style=&quot;font-size: 20px;&quot;&gt;의사 추천하기&lt;/span&gt;" style="rounded=0;whiteSpace=wrap;html=1;" vertex="1" parent="1">
          <mxGeometry x="712" y="400" width="190" height="30" as="geometry" />
        </mxCell>
        <mxCell id="8KQ6tQdaeJpBKfgj7b4e-39" style="edgeStyle=orthogonalEdgeStyle;rounded=0;orthogonalLoop=1;jettySize=auto;html=1;endArrow=none;endFill=0;" edge="1" parent="1" source="8KQ6tQdaeJpBKfgj7b4e-13" target="8KQ6tQdaeJpBKfgj7b4e-7">
          <mxGeometry relative="1" as="geometry" />
        </mxCell>
        <mxCell id="8KQ6tQdaeJpBKfgj7b4e-13" value="&lt;span style=&quot;font-size: 20px;&quot;&gt;병원 상세보기&lt;/span&gt;" style="rounded=0;whiteSpace=wrap;html=1;" vertex="1" parent="1">
          <mxGeometry x="711" y="450" width="190" height="30" as="geometry" />
        </mxCell>
        <mxCell id="8KQ6tQdaeJpBKfgj7b4e-62" style="edgeStyle=orthogonalEdgeStyle;rounded=0;orthogonalLoop=1;jettySize=auto;html=1;endArrow=none;endFill=0;" edge="1" parent="1" source="8KQ6tQdaeJpBKfgj7b4e-32">
          <mxGeometry relative="1" as="geometry">
            <mxPoint x="200" y="635.0000000000001" as="targetPoint" />
          </mxGeometry>
        </mxCell>
        <mxCell id="8KQ6tQdaeJpBKfgj7b4e-63" style="edgeStyle=orthogonalEdgeStyle;rounded=0;orthogonalLoop=1;jettySize=auto;html=1;entryX=0;entryY=0.5;entryDx=0;entryDy=0;endArrow=none;endFill=0;" edge="1" parent="1" source="8KQ6tQdaeJpBKfgj7b4e-32" target="8KQ6tQdaeJpBKfgj7b4e-7">
          <mxGeometry relative="1" as="geometry" />
        </mxCell>
        <mxCell id="8KQ6tQdaeJpBKfgj7b4e-32" value="&lt;span style=&quot;font-size: 20px;&quot;&gt;즐겨찾기 확인하기&lt;/span&gt;" style="rounded=0;whiteSpace=wrap;html=1;" vertex="1" parent="1">
          <mxGeometry x="240" y="620" width="190" height="30" as="geometry" />
        </mxCell>
        <mxCell id="8KQ6tQdaeJpBKfgj7b4e-34" style="edgeStyle=orthogonalEdgeStyle;rounded=0;orthogonalLoop=1;jettySize=auto;html=1;endArrow=none;endFill=0;" edge="1" parent="1" source="8KQ6tQdaeJpBKfgj7b4e-33">
          <mxGeometry relative="1" as="geometry">
            <mxPoint x="200" y="525" as="targetPoint" />
          </mxGeometry>
        </mxCell>
        <mxCell id="8KQ6tQdaeJpBKfgj7b4e-54" style="edgeStyle=orthogonalEdgeStyle;rounded=0;orthogonalLoop=1;jettySize=auto;html=1;endArrow=none;endFill=0;" edge="1" parent="1" source="8KQ6tQdaeJpBKfgj7b4e-33" target="8KQ6tQdaeJpBKfgj7b4e-52">
          <mxGeometry relative="1" as="geometry" />
        </mxCell>
        <mxCell id="8KQ6tQdaeJpBKfgj7b4e-61" style="edgeStyle=orthogonalEdgeStyle;rounded=0;orthogonalLoop=1;jettySize=auto;html=1;entryX=0;entryY=0.5;entryDx=0;entryDy=0;endArrow=none;endFill=0;" edge="1" parent="1" source="8KQ6tQdaeJpBKfgj7b4e-33" target="8KQ6tQdaeJpBKfgj7b4e-60">
          <mxGeometry relative="1" as="geometry" />
        </mxCell>
        <mxCell id="8KQ6tQdaeJpBKfgj7b4e-33" value="&lt;span style=&quot;font-size: 20px;&quot;&gt;예약 결과확인하기&lt;/span&gt;" style="rounded=0;whiteSpace=wrap;html=1;" vertex="1" parent="1">
          <mxGeometry x="240" y="510" width="190" height="30" as="geometry" />
        </mxCell>
        <mxCell id="8KQ6tQdaeJpBKfgj7b4e-52" value="&lt;span style=&quot;font-size: 20px;&quot;&gt;예약 확정짓기&lt;/span&gt;" style="rounded=0;whiteSpace=wrap;html=1;" vertex="1" parent="1">
          <mxGeometry x="480" y="510" width="190" height="30" as="geometry" />
        </mxCell>
        <mxCell id="8KQ6tQdaeJpBKfgj7b4e-60" value="&lt;span style=&quot;font-size: 20px;&quot;&gt;예약 취소하기&lt;/span&gt;" style="rounded=0;whiteSpace=wrap;html=1;" vertex="1" parent="1">
          <mxGeometry x="480" y="560" width="190" height="30" as="geometry" />
        </mxCell>
        <mxCell id="8KQ6tQdaeJpBKfgj7b4e-65" style="edgeStyle=orthogonalEdgeStyle;rounded=0;orthogonalLoop=1;jettySize=auto;html=1;endArrow=none;endFill=0;" edge="1" parent="1" source="8KQ6tQdaeJpBKfgj7b4e-64">
          <mxGeometry relative="1" as="geometry">
            <mxPoint x="200" y="705" as="targetPoint" />
          </mxGeometry>
        </mxCell>
        <mxCell id="8KQ6tQdaeJpBKfgj7b4e-66" style="edgeStyle=orthogonalEdgeStyle;rounded=0;orthogonalLoop=1;jettySize=auto;html=1;entryX=0.5;entryY=1;entryDx=0;entryDy=0;endArrow=none;endFill=0;" edge="1" parent="1" source="8KQ6tQdaeJpBKfgj7b4e-64" target="8KQ6tQdaeJpBKfgj7b4e-13">
          <mxGeometry relative="1" as="geometry" />
        </mxCell>
        <mxCell id="8KQ6tQdaeJpBKfgj7b4e-64" value="&lt;span style=&quot;font-size: 20px;&quot;&gt;병원 찾기&lt;/span&gt;" style="rounded=0;whiteSpace=wrap;html=1;" vertex="1" parent="1">
          <mxGeometry x="240" y="690" width="190" height="30" as="geometry" />
        </mxCell>
        <mxCell id="8KQ6tQdaeJpBKfgj7b4e-68" style="edgeStyle=orthogonalEdgeStyle;rounded=0;orthogonalLoop=1;jettySize=auto;html=1;endArrow=none;endFill=0;" edge="1" parent="1" source="8KQ6tQdaeJpBKfgj7b4e-67">
          <mxGeometry relative="1" as="geometry">
            <mxPoint x="220" y="1170" as="targetPoint" />
          </mxGeometry>
        </mxCell>
        <mxCell id="8KQ6tQdaeJpBKfgj7b4e-67" value="&lt;font style=&quot;font-size: 20px;&quot;&gt;병원&amp;nbsp;&lt;br&gt;&lt;/font&gt;" style="rounded=0;whiteSpace=wrap;html=1;" vertex="1" parent="1">
          <mxGeometry x="180" y="820" width="80" height="30" as="geometry" />
        </mxCell>
        <mxCell id="8KQ6tQdaeJpBKfgj7b4e-77" style="edgeStyle=orthogonalEdgeStyle;rounded=0;orthogonalLoop=1;jettySize=auto;html=1;endArrow=none;endFill=0;" edge="1" parent="1" source="8KQ6tQdaeJpBKfgj7b4e-69">
          <mxGeometry relative="1" as="geometry">
            <mxPoint x="220" y="885" as="targetPoint" />
          </mxGeometry>
        </mxCell>
        <mxCell id="8KQ6tQdaeJpBKfgj7b4e-69" value="&lt;span style=&quot;font-size: 20px;&quot;&gt;로그인 및 회원가입&lt;/span&gt;" style="rounded=0;whiteSpace=wrap;html=1;" vertex="1" parent="1">
          <mxGeometry x="260" y="870" width="180" height="30" as="geometry" />
        </mxCell>
        <mxCell id="8KQ6tQdaeJpBKfgj7b4e-78" style="edgeStyle=orthogonalEdgeStyle;rounded=0;orthogonalLoop=1;jettySize=auto;html=1;endArrow=none;endFill=0;" edge="1" parent="1" source="8KQ6tQdaeJpBKfgj7b4e-70">
          <mxGeometry relative="1" as="geometry">
            <mxPoint x="220" y="955" as="targetPoint" />
          </mxGeometry>
        </mxCell>
        <mxCell id="8KQ6tQdaeJpBKfgj7b4e-70" value="&lt;span style=&quot;font-size: 20px;&quot;&gt;병원 기본 정보 작성&lt;/span&gt;" style="rounded=0;whiteSpace=wrap;html=1;" vertex="1" parent="1">
          <mxGeometry x="260" y="940" width="190" height="30" as="geometry" />
        </mxCell>
        <mxCell id="8KQ6tQdaeJpBKfgj7b4e-79" style="edgeStyle=orthogonalEdgeStyle;rounded=0;orthogonalLoop=1;jettySize=auto;html=1;endArrow=none;endFill=0;" edge="1" parent="1" source="8KQ6tQdaeJpBKfgj7b4e-71">
          <mxGeometry relative="1" as="geometry">
            <mxPoint x="220" y="1025" as="targetPoint" />
          </mxGeometry>
        </mxCell>
        <mxCell id="8KQ6tQdaeJpBKfgj7b4e-71" value="&lt;span style=&quot;font-size: 20px;&quot;&gt;개인정보 변경&lt;/span&gt;" style="rounded=0;whiteSpace=wrap;html=1;" vertex="1" parent="1">
          <mxGeometry x="260" y="1010" width="190" height="30" as="geometry" />
        </mxCell>
        <mxCell id="8KQ6tQdaeJpBKfgj7b4e-74" style="edgeStyle=orthogonalEdgeStyle;rounded=0;orthogonalLoop=1;jettySize=auto;html=1;endArrow=none;endFill=0;" edge="1" parent="1" source="8KQ6tQdaeJpBKfgj7b4e-73">
          <mxGeometry relative="1" as="geometry">
            <mxPoint x="200" y="775" as="targetPoint" />
          </mxGeometry>
        </mxCell>
        <mxCell id="8KQ6tQdaeJpBKfgj7b4e-73" value="&lt;span style=&quot;font-size: 20px;&quot;&gt;개인정보 변경&lt;/span&gt;" style="rounded=0;whiteSpace=wrap;html=1;" vertex="1" parent="1">
          <mxGeometry x="240" y="760" width="190" height="30" as="geometry" />
        </mxCell>
        <mxCell id="8KQ6tQdaeJpBKfgj7b4e-80" style="edgeStyle=orthogonalEdgeStyle;rounded=0;orthogonalLoop=1;jettySize=auto;html=1;endArrow=none;endFill=0;" edge="1" parent="1" source="8KQ6tQdaeJpBKfgj7b4e-75">
          <mxGeometry relative="1" as="geometry">
            <mxPoint x="220" y="1095" as="targetPoint" />
          </mxGeometry>
        </mxCell>
        <mxCell id="8KQ6tQdaeJpBKfgj7b4e-90" style="edgeStyle=orthogonalEdgeStyle;rounded=0;orthogonalLoop=1;jettySize=auto;html=1;endArrow=none;endFill=0;" edge="1" parent="1" source="8KQ6tQdaeJpBKfgj7b4e-75" target="8KQ6tQdaeJpBKfgj7b4e-89">
          <mxGeometry relative="1" as="geometry" />
        </mxCell>
        <mxCell id="8KQ6tQdaeJpBKfgj7b4e-75" value="&lt;span style=&quot;font-size: 20px;&quot;&gt;의사 등록&lt;/span&gt;" style="rounded=0;whiteSpace=wrap;html=1;" vertex="1" parent="1">
          <mxGeometry x="260" y="1080" width="190" height="30" as="geometry" />
        </mxCell>
        <mxCell id="8KQ6tQdaeJpBKfgj7b4e-81" style="edgeStyle=orthogonalEdgeStyle;rounded=0;orthogonalLoop=1;jettySize=auto;html=1;endArrow=none;endFill=0;" edge="1" parent="1" source="8KQ6tQdaeJpBKfgj7b4e-76">
          <mxGeometry relative="1" as="geometry">
            <mxPoint x="220" y="1165" as="targetPoint" />
          </mxGeometry>
        </mxCell>
        <mxCell id="8KQ6tQdaeJpBKfgj7b4e-84" style="edgeStyle=orthogonalEdgeStyle;rounded=0;orthogonalLoop=1;jettySize=auto;html=1;endArrow=none;endFill=0;" edge="1" parent="1" source="8KQ6tQdaeJpBKfgj7b4e-76">
          <mxGeometry relative="1" as="geometry">
            <mxPoint x="499.9999999999998" y="1164.9999999999998" as="targetPoint" />
          </mxGeometry>
        </mxCell>
        <mxCell id="8KQ6tQdaeJpBKfgj7b4e-87" style="edgeStyle=orthogonalEdgeStyle;rounded=0;orthogonalLoop=1;jettySize=auto;html=1;entryX=0;entryY=0.5;entryDx=0;entryDy=0;endArrow=none;endFill=0;" edge="1" parent="1" source="8KQ6tQdaeJpBKfgj7b4e-76" target="8KQ6tQdaeJpBKfgj7b4e-85">
          <mxGeometry relative="1" as="geometry" />
        </mxCell>
        <mxCell id="8KQ6tQdaeJpBKfgj7b4e-76" value="&lt;span style=&quot;font-size: 20px;&quot;&gt;환자 예약확인&lt;/span&gt;" style="rounded=0;whiteSpace=wrap;html=1;" vertex="1" parent="1">
          <mxGeometry x="260" y="1150" width="190" height="30" as="geometry" />
        </mxCell>
        <mxCell id="8KQ6tQdaeJpBKfgj7b4e-85" value="&lt;span style=&quot;font-size: 20px;&quot;&gt;환자 예약 거절&lt;/span&gt;" style="rounded=0;whiteSpace=wrap;html=1;" vertex="1" parent="1">
          <mxGeometry x="500" y="1200" width="190" height="30" as="geometry" />
        </mxCell>
        <mxCell id="8KQ6tQdaeJpBKfgj7b4e-86" value="&lt;span style=&quot;font-size: 20px;&quot;&gt;환자 예약 수락&lt;/span&gt;" style="rounded=0;whiteSpace=wrap;html=1;" vertex="1" parent="1">
          <mxGeometry x="500" y="1150" width="190" height="30" as="geometry" />
        </mxCell>
        <mxCell id="8KQ6tQdaeJpBKfgj7b4e-89" value="&lt;span style=&quot;font-size: 20px;&quot;&gt;의사 등록 해지&lt;/span&gt;" style="rounded=0;whiteSpace=wrap;html=1;" vertex="1" parent="1">
          <mxGeometry x="500" y="1080" width="190" height="30" as="geometry" />
        </mxCell>
      </root>
    </mxGraphModel>
  </diagram>
</mxfile>
